#!OML:ASF F:\VICON\USERDATA\INSTALL\rory3\rory3.ASF
:FULLY-SPECIFIED
:DEGREES
99
root 0.26749968376420175 17.737098350679467 44.386492580407825 -2.7787286049024127 -0.20083556549678616 1.4961275513618881
lfemur 2.911270282925278 -3.2018695772593513 -26.411363265061777
ltibia 15.642569931642054
lfoot -7.792324736123476 -3.2581351710303093
ltoes -15.939547616101866
rfemur -27.78844894926133 2.3872448875703194 20.36195431470875
rtibia 40.249660450147
rfoot -3.4352693277790225 -13.796625023158821
rtoes 4.410562186312881
lowerback 10.496144284248581 -0.23641465604355105 -2.5351223577769684
upperback 0.8102484268695354 -0.6401485555395019 1.072751422135878
thorax -4.81432657825656 -0.2832344079550504 2.642321054783427
lowerneck -16.303089620680662 -2.8342109320654036 -3.504296875812689
upperneck 20.2357118951655 -3.6421920507557446 2.326628122239005
head 9.099811550602373 -1.7036581862859999 0.7778218928087166
lclavicle -1.956991707994843e-15 9.034302164105692e-16
lhumerus -31.152367081903602 -2.0132566201045305 81.70546627984088
lradius 34.37901205923072
lwrist 8.781667625481386
lhand -27.681335663393323 22.071659086689674
lfingers 7.12502
lthumb -0.8728388841576842 52.23346579847457
rclavicle -1.954235448388203e-15 9.058559271948623e-16
rhumerus -29.688930957746933 -18.32854846218827 -77.6687853632313
rradius 22.08170359965004
rwrist 6.804799639988687
rhand -17.23678276275331 22.818731337117846
rfingers 7.12502
rthumb 9.253820164204054 -6.823849309417303
100
root 0.2367302147900301 17.747283257929407 44.82206047897179 -1.9110579680538178 0.6219024846394934 1.8875255092588774
lfemur 5.912266133948254 -2.671521512811622 -26.725756983697078
ltibia 12.339645946922495
lfoot -7.407880853993916 -3.0046335398773962
ltoes -16.634504313622397
rfemur -27.357464800145994 5.114305779494612 18.307783536078325
rtibia 28.197858670929044
rfoot -2.4282399312468117 -15.702806056975025
rtoes 2.9718354839680003
lowerback 9.9191151088659 -0.5594008146037824 -3.023977180984054
upperback 0.7694333368873636 -1.0648313659579038 1.1270828192164668
thorax -4.685899475802628 -0.48325076944970347 3.1117202914375968
lowerneck -16.40246699920076 -2.837557184394122 -3.5508612812985945
upperneck 20.178101115324747 -3.655852258463431 2.3879385133099658
head 9.08619685476484 -1.7059704836727865 0.8207485656004737
lclavicle -1.95892902305858e-15 9.01768581943864e-16
lhumerus -30.87195755352053 -1.7851920999917217 81.70851992643055
lradius 33.9771232517071
lwrist 8.996611725765796
lhand -27.782799787684148 22.054768828969785
lfingers 7.12502
lthumb -0.9877564527057241 52.14092710056801
rclavicle -1.9545185383267364e-15 9.05595405424035e-16
rhumerus -30.149433857866047 -19.355879431742704 -77.4420472856361
rradius 21.871214188375568
rwrist 7.1485500805809945
rhand -17.198562489264667 22.92266825261395
rfingers 7.12502
rthumb 9.267258379314951 -6.714374259385699
101
root 0.18246965880404298 17.74140278965894 45.412711983681014 -1.0943904969109262 1.3261878721963636 2.271233252194302
lfemur 8.884375953220108 -2.326572080520551 -26.71004309941619
ltibia 9.35343422588491
lfoot -6.474993251953681 -2.485000320266851
ltoes -16.893268382711977
rfemur -26.157935086659215 8.45426205222506 15.690275993292646
rtibia 17.923934906403154
rfoot -2.920361601295867 -15.947542335715152
rtoes 1.4753885487324698
lowerback 9.213496292833959 -0.8849234661507984 -3.4601459161396395
upperback 0.6418063784074844 -1.519274523519988 1.1805903890017555
thorax -4.620434928301769 -0.7013301203096889 3.5473808591164624
lowerneck -16.535400244065574 -2.8379328155412886 -3.5793522062255776
upperneck 20.174338681852774 -3.6538019484249706 2.4010626852341312
head 9.096968360508964 -1.7042040024859038 0.8431506563923717
lclavicle -1.9580360003074216e-15 9.02538254399123e-16
lhumerus -30.784062985455638 -1.5260274613419107 81.79799043837733
lradius 33.53769619347298
lwrist 9.024628192091232
lhand -27.82604485698243 22.093766722705094
lfingers 7.12502
lthumb -1.0185303992965338 52.1632056724565
rclavicle -1.9541478368260817e-15 9.059372415733062e-16
rhumerus -30.22790227579844 -19.810620905249834 -77.04483550812324
rradius 21.274291962379124
rwrist 7.967569031807773
rhand -17.15031786204141 22.94255277164979
rfingers 7.12502
rthumb 9.282909742241605 -6.675488814903224
102
root 0.11127359284744703 17.693085441913695 46.15092984948938 -0.39367667705427967 2.471652505773267 3.161855900592991
lfemur 11.714174258837868 -2.8158687475506703 -27.11582827395172
ltibia 7.664268723118184
lfoot -6.7179187675192304 -2.291632103807676
ltoes -17.48567231494257
rfemur -26.44837526385482 7.886627530013406 14.708761369347602
rtibia 14.799700002183844
rfoot -4.6793904577642405 -13.85324879978797
rtoes 0.925514666175153
lowerback 8.742140643790595 -1.167840513807635 -4.278856571382646
upperback 0.533494882771997 -2.0303619466882754 1.227077096877372
thorax -4.566884796952908 -0.9440477530268674 3.9285701774154353
lowerneck -16.67814224051992 -2.8330125822630925 -3.6068899168949526
upperneck 20.223404663305406 -3.6348185644771416 2.380848260245082
head 9.128848403706872 -1.6984005735033787 0.8542248135129654
lclavicle -1.957100929415479e-15 9.033200905770465e-16
lhumerus -30.96872432441156 -1.3383949642237247 81.87214173603299
lradius 33.22071104198326
lwrist 8.90009325429022
lhand -27.828772105461848 22.16496772613077
lfingers 7.12502
lthumb -0.9793784252463569 52.286484675650925
rclavicle -1.9533692431117243e-15 9.06654372017283e-16
rhumerus -30.338013640584695 -20.171370443188103 -76.92266648609879
rradius 20.935700997252262
rwrist 8.821270144948777
rhand -17.091765335449608 22.869298912432537
rfingers 7.12502
rthumb 9.300200564650696 -6.75332105553734
103
root 0.05418565501955269 17.658917038121743 46.800174443883584 -0.5807849502811469 3.5498486402763167 2.7476698505016235
lfemur 13.342407157256638 -3.9030012452279417 -26.26005168381338
ltibia 9.011265642932315
lfoot -6.208712698384385 -2.0016305469809277
ltoes -16.44783722005553
rfemur -26.870611154868243 5.365947306950863 16.915326093896798
rtibia 17.646306793779022
rfoot -4.7977974027471575 -10.749676133433187
rtoes 1.6838497927875267
lowerback 8.889219368010032 -1.35308686234701 -4.092308553818862
upperback 0.4408021060559013 -2.253098545407986 1.4926850217306966
thorax -4.609928300395683 -1.0550563924886711 4.128952916890435
lowerneck -16.80403488312769 -2.8178541168819926 -3.617872832565289
upperneck 20.309756800389028 -3.5936599954573105 2.30830692230905
head 9.178693628260023 -1.6865650034564317 0.847338826231832
lclavicle -1.955153927149776e-15 9.048680315816182e-16
lhumerus -31.289572753326397 -1.1357510423676216 81.93445913323261
lradius 33.02044150235538
lwrist 8.720689700603685
lhand -27.797701973429096 22.247398102685104
lfingers 7.12502
lthumb -0.9218074623731942 52.4264316442255
rclavicle -1.9535431189011566e-15 9.064940290104116e-16
rhumerus -30.006674560238114 -19.69857182980614 -76.8395689150112
rradius 20.474137126578363
rwrist 9.706655966836017
rhand -17.041663679579685 22.688219850957797
rfingers 7.12502
rthumb 9.319564509029439 -6.974665598992774
104
root -0.007471694921376004 17.57676851142688 47.37905183218756 -0.9706588626633368 3.435377328975052 2.399573908026213
lfemur 14.512453103527942 -4.764595390034299 -25.857906130371568
ltibia 11.64016262271566
lfoot -5.973132889065763 -2.468051046486768
ltoes -16.807011784863693
rfemur -27.169127552335333 4.600396880946893 19.03951723139197
rtibia 21.915939379660493
rfoot -3.0868615402099566 -8.647094188933565
rtoes 3.1530493105698847
lowerback 8.966599936793449 -1.3600134040096825 -3.8326634093573455
upperback 0.4795337377093712 -2.221177046498183 1.7810363750908274
thorax -4.592497396591477 -1.0402399530572422 4.166910261302992
lowerneck -16.87372901568081 -2.7775990465053577 -3.5741035375908217
upperneck 20.412049458306157 -3.511902760804274 2.1540025229275797
head 9.235600441614952 -1.6610562416282395 0.8121851784360057
lclavicle -1.9522212891838238e-15 9.068956804121388e-16
lhumerus -31.512972948212358 -0.8521717739991512 82.05145674488288
lradius 32.80281643380573
lwrist 8.572199549983818
lhand -27.738208850908343 22.32668951573265
lfingers 7.12502
lthumb -0.8725389214448427 52.529179029029045
rclavicle -1.9528351731282047e-15 9.071459385221002e-16
rhumerus -29.829668094122507 -19.3243452926032 -77.03475425186407
rradius 20.51923431380589
rwrist 9.864773265792428
rhand -16.993785873118153 22.44891101090475
rfingers 7.12502
rthumb 9.335851176025288 -7.288318934836066
